{"title":"Anita Renfroe - Total MomSense (2007) DVDRip *$HR1MP!*","uid":5719761,"size":733030447,"categoryP":"video","categoryS":"movies","magnet":"?xt=urn:btih:59a6f84166961c0ed93224e9b89acf2932950cd2&amp;dn=Anita+Renfroe+-+Total+MomSense+%282007%29+DVDRip+%2A%24HR1MP%21%2A&amp;tr=udp%3A%2F%2Ftracker.openbittorrent.com%3A80&amp;tr=udp%3A%2F%2Fopen.demonii.com%3A1337&amp;tr=udp%3A%2F%2Ftracker.coppersurfer.tk%3A6969&amp;tr=udp%3A%2F%2Fexodus.desync.com%3A6969","seeders":0,"leechers":1,"uploader":"H0bbes99","files":2,"time":1280245215,"description":"Anita Renfroe - Total MomSense\nClean, Christian comedienne made popular from the Mom song that was \na sensation onWilliam Tell Momisms\n\n\nShe is popular with many fans of Chonda Pierce,\nMark Lowry, Ken Davis, Tim Hawkins etc.\n\nFile info from &quot;MediaInfo&quot;\nAnita Renfroe - Total MomSense (2007).avi\nFormat : AVI\nFormat/Info : Audio Video Interleave\nFile size : 699 MiB\nDuration : 1h 13mn\nOverall bit rate : 1 335 Kbps\nWriting application : FairUse Wizard - http://fairusewizard.com\nWriting library : The best and REALLY easy backup tool\n\nVideo\nID : 0\nFormat : MPEG-4 Visual\nFormat profile : Advanced Simple@L5\nFormat settings, BVOP : Yes\nFormat settings, QPel : No\nFormat settings, GMC : No warppoints\nFormat settings, Matrix : Default (H.263)\nMuxing mode : Packed bitstream\nCodec ID : XVID\nCodec ID/Hint : XviD\nDuration : 1h 13mn\nBit rate : 1 195 Kbps\nWidth : 544 pixels\nHeight : 368 pixels\nDisplay aspect ratio : 3:2\nFrame rate : 29.970 fps\nResolution : 8 bits\nColorimetry : 4:2:0\nScan type : Progressive\nBits/(Pixel*Frame) : 0.199\nStream size : 626 MiB (90%)\nWriting library : XviD 1.2.1 (UTC 2008-12-04)\n\nAudio\nID : 1\nFormat : MPEG Audio\nFormat version : Version 1\nFormat profile : Layer 3\nFormat_Settings_Mode : Joint stereo\nFormat_Settings_ModeExtension : MS Stereo\nCodec ID : 55\nCodec ID/Hint : MP3\nDuration : 1h 13mn\nBit rate mode : Constant\nBit rate : 128 Kbps\nChannel(s) : 2 channels\nSampling rate : 48.0 KHz\nStream size : 67.0 MiB (10%)\nAlignment : Aligned on interleaves\nInterleave, duration : 33 ms (1.00 video frame)\nInterleave, preload duration : 504 ms\nWriting library : LAME3.97\nEncoding settings : -m j -V 4 -q 2 -lowpass 17 -b 128","torrent":{"xt":"urn:btih:59a6f84166961c0ed93224e9b89acf2932950cd2","amp;dn":"Anita+Renfroe+-+Total+MomSense+%282007%29+DVDRip+%2A%24HR1MP%21%2A","amp;tr":["udp%3A%2F%2Ftracker.openbittorrent.com%3A80","udp%3A%2F%2Fopen.demonii.com%3A1337","udp%3A%2F%2Ftracker.coppersurfer.tk%3A6969","udp%3A%2F%2Fexodus.desync.com%3A6969"],"infoHash":"59a6f84166961c0ed93224e9b89acf2932950cd2","infoHashBuffer":{"type":"Buffer","data":[89,166,248,65,102,150,28,14,217,50,36,233,184,154,207,41,50,149,12,210]},"announce":[],"urlList":[]}}